HIERARCHY
ROOT hip
{
  OFFSET 0 0 0
  CHANNELS 6 Xposition Yposition Zposition Zrotation Yrotation Xrotation
  JOINT abdomen
  {
    OFFSET 0 20.6881 -0.73152
    CHANNELS 3 Zrotation Xrotation Yrotation
    JOINT chest
    {
      OFFSET 0 11.7043 -0.48768
      CHANNELS 3 Zrotation Xrotation Yrotation
      JOINT neck
      {
        OFFSET 0 22.1894 -2.19456
        CHANNELS 3 Zrotation Xrotation Yrotation
        JOINT head
        {
          OFFSET -0.24384 7.07133 1.2192
          CHANNELS 3 Zrotation Xrotation Yrotation
          JOINT leftEye
          {
            OFFSET 4.14528 8.04674 8.04672
            CHANNELS 3 Zrotation Xrotation Yrotation
            End Site
            {
              OFFSET 1 0 0
            }
          }
          JOINT rightEye
          {
            OFFSET -3.6576 8.04674 8.04672
            CHANNELS 3 Zrotation Xrotation Yrotation
            End Site
            {
              OFFSET 1 0 0
            }
          }
        }
      }
      JOINT rCollar
      {
        OFFSET -2.68224 19.2634 -4.8768
        CHANNELS 3 Zrotation Xrotation Yrotation
        JOINT rShldr
        {
          OFFSET -8.77824 -1.95073 1.46304
          CHANNELS 3 Zrotation Xrotation Yrotation
          JOINT rForeArm
          {
            OFFSET -28.1742 -1.7115 0.48768
            CHANNELS 3 Zrotation Xrotation Yrotation
            JOINT rHand
            {
              OFFSET -22.5879 0.773209 7.07136
              CHANNELS 3 Zrotation Xrotation Yrotation
              JOINT rThumb1
              {
                OFFSET -1.2192 -0.487915 3.41376
                CHANNELS 3 Zrotation Xrotation Yrotation
                JOINT rThumb2
                {
                  OFFSET -3.37035 -0.52449 3.41376
                  CHANNELS 3 Zrotation Xrotation Yrotation
                  End Site
                  {
                    OFFSET -1.78271 -1.18214 1.43049
                  }
                }
              }
              JOINT rIndex1
              {
                OFFSET -7.75947 0.938293 5.60832
                CHANNELS 3 Zrotation Xrotation Yrotation
                JOINT rIndex2
                {
                  OFFSET -2.54057 -0.884171 1.56538
                  CHANNELS 3 Zrotation Xrotation Yrotation
                  End Site
                  {
                    OFFSET -1.62519 -0.234802 1.16502
                  }
                }
              }
              JOINT rMid1
              {
                OFFSET -8.24714 1.18213 3.41376
                CHANNELS 3 Zrotation Xrotation Yrotation
                JOINT rMid2
                {
                  OFFSET -3.10165 -0.590103 1.0647
                  CHANNELS 3 Zrotation Xrotation Yrotation
                  End Site
                  {
                    OFFSET -2.48547 -0.328903 0.83742
                  }
                }
              }
              JOINT rRing1
              {
                OFFSET -8.82822 0.546677 1.51678
                CHANNELS 3 Zrotation Xrotation Yrotation
                JOINT rRing2
                {
                  OFFSET -2.60934 -0.819778 -0.0198488
                  CHANNELS 3 Zrotation Xrotation Yrotation
                  End Site
                  {
                    OFFSET -2.33842 -0.294052 0.168128
                  }
                }
              }
              JOINT rPinky1
              {
                OFFSET -8.27202 -0.0477905 -0.4584
                CHANNELS 3 Zrotation Xrotation Yrotation
                JOINT rPinky2
                {
                  OFFSET -1.82734 -0.647385 -0.700984
                  CHANNELS 3 Zrotation Xrotation Yrotation
                  End Site
                  {
                    OFFSET -1.69225 -0.51767 -0.607171
                  }
                }
              }
            }
          }
        }
      }
      JOINT lCollar
      {
        OFFSET 2.68224 19.2634 -4.8768
        CHANNELS 3 Zrotation Xrotation Yrotation
        JOINT lShldr
        {
          OFFSET 8.77824 -1.95073 1.46304
          CHANNELS 3 Zrotation Xrotation Yrotation
          JOINT lForeArm
          {
            OFFSET 28.1742 -1.7115 0.48768
            CHANNELS 3 Zrotation Xrotation Yrotation
            JOINT lHand
            {
              OFFSET 22.5879 0.773209 7.07136
              CHANNELS 3 Zrotation Xrotation Yrotation
              JOINT lThumb1
              {
                OFFSET 1.2192 -0.487915 3.41376
                CHANNELS 3 Zrotation Xrotation Yrotation
                JOINT lThumb2
                {
                  OFFSET 3.37035 -0.52449 3.41376
                  CHANNELS 3 Zrotation Xrotation Yrotation
                  End Site
                  {
                    OFFSET 1.78271 -1.18214 1.43049
                  }
                }
              }
              JOINT lIndex1
              {
                OFFSET 7.75947 0.938293 5.60832
                CHANNELS 3 Zrotation Xrotation Yrotation
                JOINT lIndex2
                {
                  OFFSET 2.54057 -0.884171 1.56538
                  CHANNELS 3 Zrotation Xrotation Yrotation
                  End Site
                  {
                    OFFSET 1.62519 -0.234802 1.16502
                  }
                }
              }
              JOINT lMid1
              {
                OFFSET 8.24714 1.18213 3.41376
                CHANNELS 3 Zrotation Xrotation Yrotation
                JOINT lMid2
                {
                  OFFSET 3.10165 -0.590103 1.0647
                  CHANNELS 3 Zrotation Xrotation Yrotation
                  End Site
                  {
                    OFFSET 2.48547 -0.328903 0.83742
                  }
                }
              }
              JOINT lRing1
              {
                OFFSET 8.82822 0.546677 1.51678
                CHANNELS 3 Zrotation Xrotation Yrotation
                JOINT lRing2
                {
                  OFFSET 2.60934 -0.819778 -0.0198488
                  CHANNELS 3 Zrotation Xrotation Yrotation
                  End Site
                  {
                    OFFSET 2.33842 -0.294052 0.168128
                  }
                }
              }
              JOINT lPinky1
              {
                OFFSET 8.27202 -0.0477905 -0.4584
                CHANNELS 3 Zrotation Xrotation Yrotation
                JOINT lPinky2
                {
                  OFFSET 1.82734 -0.647385 -0.700984
                  CHANNELS 3 Zrotation Xrotation Yrotation
                  End Site
                  {
                    OFFSET 1.69225 -0.51767 -0.607171
                  }
                }
              }
            }
          }
        }
      }
    }
  }
  JOINT rButtock
  {
    OFFSET -8.77824 4.35084 1.2192
    CHANNELS 3 Zrotation Xrotation Yrotation
    JOINT rThigh
    {
      OFFSET 0 -1.70687 -2.19456
      CHANNELS 3 Zrotation Xrotation Yrotation
      JOINT rShin
      {
        OFFSET 0 -36.8199 0.73152
        CHANNELS 3 Zrotation Xrotation Yrotation
        JOINT rFoot
        {
          OFFSET 0.73152 -45.1104 -5.12064
          CHANNELS 3 Zrotation Xrotation Yrotation
          End Site
          {
            OFFSET -1.1221 -3.69964 12.103
          }
        }
      }
    }
  }
  JOINT lButtock
  {
    OFFSET 8.77824 4.35084 1.2192
    CHANNELS 3 Zrotation Xrotation Yrotation
    JOINT lThigh
    {
      OFFSET 0 -1.70687 -2.19456
      CHANNELS 3 Zrotation Xrotation Yrotation
      JOINT lShin
      {
        OFFSET 0 -36.8199 0.73152
        CHANNELS 3 Zrotation Xrotation Yrotation
        JOINT lFoot
        {
          OFFSET -0.73152 -45.1104 -5.12064
          CHANNELS 3 Zrotation Xrotation Yrotation
          End Site
          {
            OFFSET 1.1221 -3.69964 12.103
          }
        }
      }
    }
  }
}
MOTION
Frames:	7
Frame Time:	0.00833333
1.4259 81.3323 88.7252 -0.8609 -4.9134 -3.5858 -2.14891 9.82389 6.01018 -1.62834 -4.06806 1.28398 -1.48546 -0.0450374 -3.0013 2.19714 -1.9094 -5.48232 -0.0 0.0 0.0 -0.0 0.0 0.0 -1.91742e-14 2.78279e-14 7.4743e-14 78.9837 10.6863 7.89532 -13.7799 -6.77817 25.1123 -7.37966e-05 -0.245289 -0.0344734 -5.58847e-10 1.40218e-09 3.81126e-10 -9.67389e-10 2.42716e-09 6.61767e-10 -5.58843e-10 1.40218e-09 3.8111e-10 7.73091 5.47488 0.417314 -5.58848e-10 1.40218e-09 3.81123e-10 2.90554 0.965183 0.102902 -5.58843e-10 1.40218e-09 3.81123e-10 10.2786 0.731801 0.0259123 -5.58857e-10 1.40218e-09 3.81129e-10 2.22167 -0.733487 -0.20892 -1.93913e-14 2.7831e-14 7.42958e-14 -80.875 13.8457 7.21054 10.1729 -4.24704 -18.126 0.0241436 -4.43126 0.62403 2.05504e-10 -7.33045e-10 4.55252e-10 3.5423e-10 -1.27035e-09 7.87986e-10 2.055e-10 -7.33041e-10 4.55265e-10 -7.73091 5.47488 -0.417314 2.05506e-10 -7.33044e-10 4.55249e-10 -2.90554 0.965183 -0.102902 2.05502e-10 -7.33046e-10 4.55248e-10 -10.2786 0.731801 -0.0259123 2.05511e-10 -7.33044e-10 4.55239e-10 -2.22167 -0.733487 0.20892 -2.03217e-16 0.0 -3.88251e-19 0.229172 -9.30283 2.30117 -1.33134 62.3071 1.37933 -0.453099 23.6331 0.974441 2.03217e-16 0.0 3.88251e-19 -6.32512 -24.9882 -3.16515 0.265315 34.6828 0.291161 -0.158707 -4.29376 -3.55714
1.52213 81.32 89.664 -0.6451 -4.8669 -3.6374 -2.58 9.96301 5.89813 -1.50285 -4.16225 1.23753 -1.49192 0.0248538 -2.93798 2.12823 -1.92688 -5.3581 -0.0 0.0 0.0 -0.0 0.0 0.0 -1.75543e-14 -1.17641e-14 2.86211e-14 79.1142 10.5051 7.73151 -13.5834 -6.62459 24.7169 0.00024592 0.151718 0.0213359 -2.72913e-10 5.87103e-10 4.62824e-10 -4.7232e-10 1.01671e-09 8.01418e-10 -2.72909e-10 5.87106e-10 4.6281e-10 7.73091 5.47488 0.417314 -2.72914e-10 5.87104e-10 4.62822e-10 2.90554 0.965183 0.102902 -2.72908e-10 5.87104e-10 4.62823e-10 10.2786 0.731801 0.0259123 -2.72921e-10 5.87106e-10 4.62831e-10 2.22167 -0.733487 -0.20892 -1.77591e-14 -1.17615e-14 2.81898e-14 -80.697 14.4598 7.02504 10.3435 -4.35374 -18.4457 0.0307956 -5.00264 0.704873 1.69022e-10 -5.2416e-10 -3.85356e-12 2.92812e-10 -9.06888e-10 -6.04178e-12 1.69018e-10 -5.24156e-10 -3.8409e-12 -7.73091 5.47488 -0.417314 1.69023e-10 -5.24159e-10 -3.85608e-12 -2.90554 0.965183 -0.102902 1.69018e-10 -5.2416e-10 -3.85592e-12 -10.2786 0.731801 -0.0259123 1.69027e-10 -5.24159e-10 -3.86316e-12 -2.22167 -0.733487 0.20892 -2.03217e-16 0.0 -3.88251e-19 -0.235214 -10.9317 1.98009 -1.51172 64.4192 1.55595 -0.214328 22.8094 0.139884 2.03217e-16 0.0 3.88251e-19 -6.81998 -24.2649 -3.17335 0.262761 34.8732 0.272648 -0.13824 -4.86799 -3.25798
1.575 81.311 90.6284 -0.54 -4.8009 -3.6403 -2.80517 10.1511 5.75169 -1.3805 -4.31954 1.18701 -1.52567 0.094707 -2.8616 2.03994 -1.8502 -5.20239 -0.0 0.0 0.0 -0.0 0.0 0.0 -4.96448e-15 -8.49564e-14 -6.78353e-14 79.2153 10.2927 7.5466 -13.3522 -6.44551 24.2555 -0.000591713 0.676973 0.0951868 3.00977e-10 -1.09057e-09 5.01585e-10 5.21198e-10 -1.88659e-09 8.65474e-10 3.0098e-10 -1.09056e-09 5.01573e-10 7.73091 5.47488 0.417314 3.00977e-10 -1.09057e-09 5.01586e-10 2.90554 0.965183 0.102902 3.00983e-10 -1.09057e-09 5.01587e-10 10.2786 0.731801 0.0259123 3.00971e-10 -1.09056e-09 5.01597e-10 2.22167 -0.733487 -0.20892 -5.13661e-15 -8.49554e-14 -6.82049e-14 -80.5581 15.1891 6.87296 10.544 -4.48021 -18.8232 0.0388089 -5.60923 0.790869 8.71702e-11 1.02156e-10 -8.46024e-10 1.54333e-10 1.80623e-10 -1.46262e-09 8.71646e-11 1.0216e-10 -8.46012e-10 -7.73091 5.47488 -0.417314 8.71704e-11 1.02158e-10 -8.46026e-10 -2.90554 0.965183 -0.102902 8.71636e-11 1.02157e-10 -8.46024e-10 -10.2786 0.731801 -0.0259123 8.71737e-11 1.02157e-10 -8.46028e-10 -2.22167 -0.733487 0.20892 -2.03217e-16 0.0 -3.88251e-19 -0.525297 -12.5013 1.56457 -1.70859 66.3573 1.75456 -0.0517896 21.3785 -0.553247 2.03217e-16 0.0 3.88251e-19 -7.11593 -23.5111 -3.14212 0.260013 35.0684 0.245864 -0.122362 -5.45649 -3.04813
1.64145 81.3421 91.6863 -0.3891 -4.867 -3.778 -2.94437 10.3331 5.5759 -1.25987 -4.46489 1.13201 -1.5664 0.163932 -2.78666 1.94436 -1.76544 -5.04794 -0.0 0.0 0.0 -0.0 0.0 0.0 1.10528e-14 -1.58708e-13 -1.67137e-13 79.3207 10.0287 7.37096 -13.1166 -6.26469 23.7904 -0.00241056 1.29582 0.182192 8.8767e-10 -2.82223e-09 4.93543e-10 1.53679e-09 -4.88331e-09 8.48547e-10 8.87673e-10 -2.82222e-09 4.93532e-10 7.73091 5.47488 0.417314 8.8767e-10 -2.82223e-09 4.93545e-10 2.90554 0.965183 0.102902 8.87677e-10 -2.82223e-09 4.93546e-10 10.2786 0.731801 0.0259123 8.87667e-10 -2.82222e-09 4.93559e-10 2.22167 -0.733487 -0.20892 1.09229e-14 -1.58708e-13 -1.67434e-13 -80.3992 15.858 6.67596 10.729 -4.59743 -19.1741 0.0455475 -6.06132 0.855104 1.79956e-12 8.12137e-10 -1.68145e-09 9.76515e-12 1.41295e-09 -2.90754e-09 1.79303e-12 8.1214e-10 -1.68144e-09 -7.73091 5.47488 -0.417314 1.79905e-12 8.12139e-10 -1.68145e-09 -2.90554 0.965183 -0.102902 1.79044e-12 8.12139e-10 -1.68145e-09 -10.2786 0.731801 -0.0259123 1.80205e-12 8.12139e-10 -1.68145e-09 -2.22167 -0.733487 0.20892 -2.03217e-16 0.0 -3.88251e-19 -0.74809 -14.0317 1.12223 -1.91525 68.0895 1.96729 0.0490465 19.6314 -1.17803 2.03217e-16 0.0 3.88251e-19 -7.32389 -22.7449 -3.08656 0.256268 35.2319 0.213398 -0.107738 -6.04107 -2.89179
1.68198 81.3907 92.7763 -0.2987 -4.934 -4.0756 -3.11827 10.4539 5.37588 -1.13923 -4.52326 1.07211 -1.59375 0.231937 -2.72762 1.85459 -1.75876 -4.92743 -0.0 0.0 0.0 -0.0 0.0 0.0 2.29552e-14 -1.99977e-13 -2.21794e-13 79.464 9.69313 7.235 -12.9089 -6.1069 23.3835 -0.00477952 1.9736 0.277482 1.21201e-09 -3.79927e-09 4.3483e-10 2.09808e-09 -6.57406e-09 7.45248e-10 1.21202e-09 -3.79927e-09 4.3482e-10 7.73091 5.47488 0.417314 1.21201e-09 -3.79927e-09 4.34833e-10 2.90554 0.965183 0.102902 1.21202e-09 -3.79927e-09 4.34834e-10 10.2786 0.731801 0.0259123 1.21201e-09 -3.79927e-09 4.34849e-10 2.22167 -0.733487 -0.20892 2.28662e-14 -1.99978e-13 -2.22042e-13 -80.1605 16.2911 6.35449 10.8544 -4.67699 -19.4138 0.0469073 -6.16923 0.870429 -4.5238e-11 1.27202e-09 -2.12032e-09 -6.99165e-11 2.21088e-09 -3.66661e-09 -4.5245e-11 1.27202e-09 -2.12031e-09 -7.73091 5.47488 -0.417314 -4.52389e-11 1.27202e-09 -2.12032e-09 -2.90554 0.965183 -0.102902 -4.52483e-11 1.27202e-09 -2.12032e-09 -10.2786 0.731801 -0.0259123 -4.52362e-11 1.27202e-09 -2.12032e-09 -2.22167 -0.733487 0.20892 -2.03217e-16 0.0 -3.88251e-19 -1.00346 -15.5433 0.722285 -2.11997 69.584 2.18139 0.111335 17.8574 -1.81133 2.03217e-16 0.0 3.88251e-19 -7.55393 -21.9846 -3.02132 0.250569 35.3274 0.177923 -0.0897937 -6.6036 -2.75302
1.69561 81.4421 93.824 -0.1986 -4.8924 -4.2638 -3.34867 10.4779 5.14585 -1.01743 -4.44158 1.00629 -1.59812 0.298823 -2.69244 1.76357 -1.89234 -4.85838 -0.0 0.0 0.0 -0.0 0.0 0.0 2.90363e-14 -2.03611e-13 -2.10176e-13 79.6636 9.24693 7.16883 -12.7427 -5.98254 23.0585 -0.0081999 2.78199 0.391198 1.15251e-09 -3.72589e-09 3.47807e-10 1.99496e-09 -6.44708e-09 5.94645e-10 1.15251e-09 -3.72588e-09 3.47797e-10 7.73091 5.47488 0.417314 1.15251e-09 -3.72589e-09 3.4781e-10 2.90554 0.965183 0.102902 1.15252e-09 -3.72589e-09 3.47812e-10 10.2786 0.731801 0.0259123 1.15251e-09 -3.72588e-09 3.47825e-10 2.22167 -0.733487 -0.20892 2.89936e-14 -2.03612e-13 -2.10412e-13 -79.8097 16.3203 5.84802 10.8948 -4.70252 -19.4917 0.0381725 -5.6798 0.800753 -1.27506e-11 1.35549e-09 -2.03281e-09 -1.40018e-11 2.35528e-09 -3.51509e-09 -1.27573e-11 1.35549e-09 -2.0328e-09 -7.73091 5.47488 -0.417314 -1.27513e-11 1.35549e-09 -2.03281e-09 -2.90554 0.965183 -0.102902 -1.27602e-11 1.35549e-09 -2.0328e-09 -10.2786 0.731801 -0.0259123 -1.27492e-11 1.35549e-09 -2.03281e-09 -2.22167 -0.733487 0.20892 -2.03217e-16 0.0 -3.88251e-19 -1.3075 -17.0626 0.376962 -2.31149 70.8287 2.38715 0.135408 15.9147 -2.5202 2.03217e-16 0.0 3.88251e-19 -7.81971 -21.2402 -2.93316 0.242089 35.3359 0.139322 -0.0698443 -7.1463 -2.63748
1.67818 81.4745 94.7706 -0.263 -4.8482 -4.26 -3.57563 10.4412 4.8856 -0.895115 -4.27088 0.935119 -1.59167 0.364815 -2.67203 1.66819 -2.10721 -4.82048 -0.0 0.0 0.0 -0.0 0.0 0.0 3.32171e-14 -1.86012e-13 -1.60599e-13 79.8992 8.71225 7.14914 -12.6004 -5.8779 22.7798 -0.0148509 3.71247 0.522338 8.71955e-10 -3.06006e-09 2.2674e-10 1.50918e-09 -5.29494e-09 3.86112e-10 8.71959e-10 -3.06006e-09 2.26729e-10 7.73091 5.47488 0.417314 8.71955e-10 -3.06006e-09 2.26742e-10 2.90554 0.965183 0.102902 8.71961e-10 -3.06006e-09 2.26745e-10 10.2786 0.731801 0.0259123 8.7195e-10 -3.06006e-09 2.26755e-10 2.22167 -0.733487 -0.20892 3.32288e-14 -1.86013e-13 -1.60839e-13 -79.3923 16.0776 5.21378 10.8793 -4.69255 -19.4619 0.0253196 -4.76167 0.670546 6.69305e-11 1.253e-09 -1.63544e-09 1.22395e-10 2.17663e-09 -2.82754e-09 6.69245e-11 1.253e-09 -1.63543e-09 -7.73091 5.47488 -0.417314 6.69302e-11 1.253e-09 -1.63544e-09 -2.90554 0.965183 -0.102902 6.69228e-11 1.253e-09 -1.63544e-09 -10.2786 0.731801 -0.0259123 6.69318e-11 1.253e-09 -1.63544e-09 -2.22167 -0.733487 0.20892 -2.03217e-16 0.0 -3.88251e-19 -1.60711 -18.5715 0.0508751 -2.48525 71.842 2.58039 0.094492 13.7235 -3.24821 2.03217e-16 0.0 3.88251e-19 -8.06941 -20.5001 -2.82053 0.231297 35.28 0.096577 -0.0514901 -7.67641 -2.55937
